<?xml version="1.0" encoding="utf-8"?>
<!-- Generator: Adobe Illustrator 16.0.0, SVG Export Plug-In . SVG Version: 6.00 Build 0)  -->
<!DOCTYPE svg PUBLIC "-//W3C//DTD SVG 1.1//EN" "http://www.w3.org/Graphics/SVG/1.1/DTD/svg11.dtd">
<svg version="1.1" id="圖層_1" xmlns="http://www.w3.org/2000/svg" xmlns:xlink="http://www.w3.org/1999/xlink" x="0px" y="0px"
	 width="841.89px" height="595.281px" viewBox="0 0 841.89 595.281" enable-background="new 0 0 841.89 595.281"
	 xml:space="preserve">
<polygon opacity="0.85" fill="#010717" points="633.48,470.158 713.478,390.158 713.478,115.375 184.783,115.375 104.784,195.375 
	104.784,470.158 "/>
<polygon fill="#8C5C1A" points="96.839,490.158 112.839,474.158 100.839,474.158 84.839,490.158 "/>
<polygon fill="#8C5C1A" points="128.89,490.158 144.89,474.158 132.89,474.158 116.89,490.158 "/>
<polygon fill="#8C5C1A" points="112.865,490.158 128.865,474.158 116.865,474.158 100.865,490.158 "/>
<polygon fill="#8C5C1A" points="160.941,490.158 176.941,474.158 164.941,474.158 148.941,490.158 "/>
<polygon fill="#8C5C1A" points="144.916,490.158 160.916,474.158 148.916,474.158 132.916,490.158 "/>
<polygon fill="#8C5C1A" points="196.993,490.158 196.993,474.158 180.993,490.158 "/>
<polygon fill="#8C5C1A" points="176.967,490.158 192.967,474.158 180.967,474.158 164.967,490.158 "/>
<polygon fill="#8C5C1A" points="545.556,490.158 561.556,474.158 545.556,474.158 "/>
<polygon fill="#8C5C1A" points="577.607,490.158 593.607,474.158 581.607,474.158 565.607,490.158 "/>
<polygon fill="#8C5C1A" points="561.582,490.158 577.582,474.158 565.582,474.158 549.582,490.158 "/>
<polygon fill="#8C5C1A" points="609.658,490.158 625.658,474.158 613.658,474.158 597.658,490.158 "/>
<polygon fill="#8C5C1A" points="593.634,490.158 609.634,474.158 597.634,474.158 581.634,490.158 "/>
<polygon fill="#8C5C1A" points="641.71,490.158 657.71,474.158 645.71,474.158 629.71,490.158 "/>
<polygon fill="#8C5C1A" points="625.685,490.158 641.685,474.158 629.685,474.158 613.685,490.158 "/>
<polygon fill="#8C5C1A" points="84.784,486.187 96.813,474.158 84.813,474.158 84.784,474.187 "/>
<polygon fill="#D4A15B" points="717.478,391.814 639.138,470.158 661.765,470.158 733.478,398.441 733.478,391.814 "/>
<rect x="199.461" y="474.167" fill="#B07B28" width="341.539" height="15.98"/>
<rect x="84.784" y="195.375" fill="#B07B28" width="16" height="182.093"/>
<polygon fill="#E8C97B" points="84.784,442.074 100.784,426.074 100.784,408.57 84.784,424.57 "/>
<polygon fill="#C48C31" points="84.784,446.316 84.784,470.158 100.784,470.158 100.784,430.316 "/>
<polygon fill="#C48C31" points="84.784,420.328 100.784,404.328 100.784,380.468 84.784,380.468 "/>
<polygon fill="#8C5C1A" points="721.423,95.404 705.423,111.404 717.423,111.404 733.423,95.404 "/>
<polygon fill="#8C5C1A" points="689.373,95.404 673.373,111.404 685.373,111.404 701.373,95.404 "/>
<polygon fill="#8C5C1A" points="705.398,95.404 689.398,111.404 701.398,111.404 717.398,95.404 "/>
<polygon fill="#8C5C1A" points="657.322,95.404 641.322,111.404 653.322,111.404 669.322,95.404 "/>
<polygon fill="#8C5C1A" points="673.347,95.404 657.347,111.404 669.347,111.404 685.347,95.404 "/>
<polygon fill="#8C5C1A" points="621.271,95.404 621.271,111.404 637.271,95.404 "/>
<polygon fill="#8C5C1A" points="641.296,95.404 625.296,111.404 637.296,111.404 653.296,95.404 "/>
<polygon fill="#8C5C1A" points="272.707,95.404 256.707,111.404 272.707,111.404 "/>
<polygon fill="#8C5C1A" points="240.656,95.404 224.656,111.404 236.656,111.404 252.656,95.404 "/>
<polygon fill="#8C5C1A" points="256.681,95.404 240.681,111.404 252.681,111.404 268.681,95.404 "/>
<polygon fill="#8C5C1A" points="208.605,95.404 192.605,111.404 204.605,111.404 220.605,95.404 "/>
<polygon fill="#8C5C1A" points="224.629,95.404 208.629,111.404 220.629,111.404 236.629,95.404 "/>
<polygon fill="#8C5C1A" points="176.553,95.404 160.553,111.404 172.553,111.404 188.553,95.404 "/>
<polygon fill="#8C5C1A" points="192.579,95.404 176.579,111.404 188.579,111.404 204.579,95.404 "/>
<polygon fill="#8C5C1A" points="733.478,99.374 721.449,111.404 733.449,111.404 733.478,111.374 "/>
<polygon fill="#D4A15B" points="100.784,193.747 179.125,115.404 156.499,115.404 84.784,187.12 84.784,193.747 "/>
<rect x="277.263" y="95.415" fill="#B07B28" width="341.539" height="15.979"/>
<rect x="717.478" y="208.093" fill="#B07B28" width="16" height="182.094"/>
<polygon fill="#E8C97B" points="733.478,143.487 717.478,159.487 717.478,176.991 733.478,160.991 "/>
<polygon fill="#C48C31" points="733.478,139.245 733.478,115.404 717.478,115.404 717.478,155.245 "/>
<polygon fill="#C48C31" points="733.478,165.233 717.478,181.233 717.478,205.093 733.478,205.093 "/>
</svg>
