<?xml version="1.0" encoding="utf-8"?>
<!-- Generator: Adobe Illustrator 16.0.0, SVG Export Plug-In . SVG Version: 6.00 Build 0)  -->
<!DOCTYPE svg PUBLIC "-//W3C//DTD SVG 1.1//EN" "http://www.w3.org/Graphics/SVG/1.1/DTD/svg11.dtd">
<svg version="1.1" id="圖層_1" xmlns="http://www.w3.org/2000/svg" xmlns:xlink="http://www.w3.org/1999/xlink" x="0px" y="0px"
	 width="841.89px" height="595.28px" viewBox="0 0 841.89 595.28" enable-background="new 0 0 841.89 595.28" xml:space="preserve">
<polygon fill="#010717" points="633.48,470.157 713.479,390.157 713.479,115.375 184.783,115.375 104.784,195.375 104.784,470.157 
	"/>
<polygon fill="#8C5C1A" points="96.839,490.157 112.839,474.157 100.839,474.157 84.839,490.157 "/>
<polygon fill="#8C5C1A" points="128.89,490.157 144.89,474.157 132.89,474.157 116.89,490.157 "/>
<polygon fill="#8C5C1A" points="112.865,490.157 128.865,474.157 116.865,474.157 100.865,490.157 "/>
<polygon fill="#8C5C1A" points="160.941,490.157 176.941,474.157 164.941,474.157 148.941,490.157 "/>
<polygon fill="#8C5C1A" points="144.916,490.157 160.916,474.157 148.916,474.157 132.916,490.157 "/>
<polygon fill="#8C5C1A" points="196.993,490.157 196.993,474.157 180.993,490.157 "/>
<polygon fill="#8C5C1A" points="176.967,490.157 192.967,474.157 180.967,474.157 164.967,490.157 "/>
<polygon fill="#8C5C1A" points="545.557,490.157 561.557,474.157 545.557,474.157 "/>
<polygon fill="#8C5C1A" points="577.607,490.157 593.607,474.157 581.607,474.157 565.607,490.157 "/>
<polygon fill="#8C5C1A" points="561.582,490.157 577.582,474.157 565.582,474.157 549.582,490.157 "/>
<polygon fill="#8C5C1A" points="609.658,490.157 625.658,474.157 613.658,474.157 597.658,490.157 "/>
<polygon fill="#8C5C1A" points="593.634,490.157 609.634,474.157 597.634,474.157 581.634,490.157 "/>
<polygon fill="#8C5C1A" points="641.71,490.157 657.71,474.157 645.71,474.157 629.71,490.157 "/>
<polygon fill="#8C5C1A" points="625.685,490.157 641.685,474.157 629.685,474.157 613.685,490.157 "/>
<polygon fill="#8C5C1A" points="84.784,486.188 96.813,474.157 84.813,474.157 84.784,474.188 "/>
<polygon fill="#D4A15B" points="717.479,391.814 639.138,470.157 661.765,470.157 733.479,398.441 733.479,391.814 "/>
<rect x="199.461" y="474.168" fill="#B07B28" width="341.539" height="15.979"/>
<rect x="84.784" y="195.375" fill="#B07B28" width="16" height="182.094"/>
<polygon fill="#E8C97B" points="84.784,442.074 100.784,426.074 100.784,408.57 84.784,424.57 "/>
<polygon fill="#C48C31" points="84.784,446.316 84.784,470.157 100.784,470.157 100.784,430.316 "/>
<polygon fill="#C48C31" points="84.784,420.328 100.784,404.328 100.784,380.469 84.784,380.469 "/>
<polygon fill="#8C5C1A" points="721.424,95.404 705.424,111.404 717.424,111.404 733.424,95.404 "/>
<polygon fill="#8C5C1A" points="689.373,95.404 673.373,111.404 685.373,111.404 701.373,95.404 "/>
<polygon fill="#8C5C1A" points="705.398,95.404 689.398,111.404 701.398,111.404 717.398,95.404 "/>
<polygon fill="#8C5C1A" points="657.321,95.404 641.321,111.404 653.321,111.404 669.321,95.404 "/>
<polygon fill="#8C5C1A" points="673.347,95.404 657.347,111.404 669.347,111.404 685.347,95.404 "/>
<polygon fill="#8C5C1A" points="621.271,95.404 621.271,111.404 637.271,95.404 "/>
<polygon fill="#8C5C1A" points="641.296,95.404 625.296,111.404 637.296,111.404 653.296,95.404 "/>
<polygon fill="#8C5C1A" points="272.707,95.404 256.707,111.404 272.707,111.404 "/>
<polygon fill="#8C5C1A" points="240.656,95.404 224.656,111.404 236.656,111.404 252.656,95.404 "/>
<polygon fill="#8C5C1A" points="256.681,95.404 240.681,111.404 252.681,111.404 268.681,95.404 "/>
<polygon fill="#8C5C1A" points="208.605,95.404 192.605,111.404 204.605,111.404 220.605,95.404 "/>
<polygon fill="#8C5C1A" points="224.629,95.404 208.629,111.404 220.629,111.404 236.629,95.404 "/>
<polygon fill="#8C5C1A" points="176.553,95.404 160.553,111.404 172.553,111.404 188.553,95.404 "/>
<polygon fill="#8C5C1A" points="192.579,95.404 176.579,111.404 188.579,111.404 204.579,95.404 "/>
<polygon fill="#8C5C1A" points="733.479,99.374 721.449,111.404 733.449,111.404 733.479,111.374 "/>
<polygon fill="#D4A15B" points="100.784,193.747 179.125,115.404 156.499,115.404 84.784,187.12 84.784,193.747 "/>
<rect x="277.263" y="95.415" fill="#B07B28" width="341.539" height="15.979"/>
<rect x="717.479" y="208.093" fill="#B07B28" width="16" height="182.094"/>
<polygon fill="#E8C97B" points="733.479,143.487 717.479,159.487 717.479,176.991 733.479,160.991 "/>
<polygon fill="#C48C31" points="733.479,139.245 733.479,115.404 717.479,115.404 717.479,155.245 "/>
<polygon fill="#C48C31" points="733.479,165.233 717.479,181.233 717.479,205.093 733.479,205.093 "/>
</svg>
